<?xml version="1.0" standalone="no"?>
<!DOCTYPE svg PUBLIC "-//W3C//DTD SVG 20010904//EN"
 "http://www.w3.org/TR/2001/REC-SVG-20010904/DTD/svg10.dtd">
<svg version="1.0" xmlns="http://www.w3.org/2000/svg"
 width="2000.000000pt" height="2000.000000pt" viewBox="0 0 2000.000000 2000.000000"
 preserveAspectRatio="xMidYMid meet">
<metadata>
Created by potrace 1.14, written by Peter Selinger 2001-2017
</metadata>
<g transform="translate(0.000000,2000.000000) scale(0.100000,-0.100000)"
fill="#000000" stroke="none">
<path d="M17415 13661 c-49 -4 -118 -11 -152 -15 l-63 -8 0 -787 0 -788 103
-6 c192 -12 328 -66 438 -176 114 -115 163 -247 162 -441 -1 -184 -40 -334
-147 -555 -101 -209 -241 -405 -462 -650 -378 -419 -1105 -1132 -1942 -1904
-133 -123 -242 -224 -242 -225 0 -1 19 0 43 1 23 1 566 19 1207 39 l1165 36
265 267 c1187 1195 1682 2001 1821 2961 84 582 -31 1069 -354 1499 -354 471
-913 737 -1587 755 -91 2 -205 1 -255 -3z"/>
<path d="M16762 13564 c-630 -164 -1119 -496 -1436 -974 -243 -367 -389 -818
-441 -1364 -9 -96 -15 -264 -15 -423 l0 -263 30 0 c29 0 1336 114 1436 125
l50 6 0 242 c-1 349 28 516 123 712 77 157 184 262 349 340 l62 29 0 803 c0
636 -3 803 -12 803 -7 -1 -73 -16 -146 -36z"/>
<path d="M13300 12920 c-536 -76 -994 -141 -1017 -145 l-43 -6 0 -710 0 -709
28 0 c15 1 486 51 1047 113 l1020 113 3 742 2 742 -32 -1 c-18 -1 -472 -63
-1008 -139z"/>
<path d="M11240 12629 c-377 -54 -691 -98 -697 -98 -10 -1 -13 -627 -13 -3096
l0 -3095 720 0 720 0 0 3195 0 3195 -22 -1 c-13 -1 -331 -46 -708 -100z"/>
<path d="M7520 12105 c-278 -40 -544 -78 -592 -85 l-88 -12 0 -2834 0 -2834
625 0 625 0 0 2920 0 2920 -32 -1 c-18 -1 -260 -34 -538 -74z"/>
<path d="M5613 11837 l-783 -111 0 -598 c0 -329 3 -598 7 -598 22 0 1560 171
1571 175 16 6 13 1237 -3 1240 -5 2 -362 -47 -792 -108z"/>
<path d="M4070 11619 c-300 -43 -546 -78 -547 -79 -2 0 -3 -1170 -3 -2600 l0
-2600 550 0 550 0 0 2680 c0 1474 -1 2680 -2 2679 -2 -1 -248 -36 -548 -80z"/>
<path d="M2085 11340 c-572 -80 -1212 -171 -1423 -200 l-382 -54 0 -528 c0
-292 4 -528 9 -528 25 0 2828 311 2839 315 9 3 12 127 12 569 0 311 -3 567 -7
569 -5 2 -476 -62 -1048 -143z"/>
<path d="M12888 10331 l-648 -56 0 -725 0 -725 47 3 c27 1 298 16 603 32 305
16 594 32 643 36 l87 6 0 744 0 744 -42 -1 c-24 -1 -334 -27 -690 -58z"/>
<path d="M1690 10016 l-495 -51 -3 -1813 -2 -1812 525 0 525 0 0 1865 0 1865
-27 -1 c-16 -1 -251 -25 -523 -53z"/>
<path d="M5365 9684 c-264 -23 -492 -43 -507 -43 l-28 -1 0 -610 0 -610 38 1
c20 0 253 13 517 27 l480 27 3 628 c2 499 0 627 -10 626 -7 -1 -229 -21 -493
-45z"/>
<path d="M17175 7914 c-1298 -40 -2361 -73 -2362 -73 -2 -1 -3 -338 -3 -751
l0 -750 2455 0 2455 0 0 825 0 825 -92 -1 c-51 -1 -1155 -34 -2453 -75z"/>
<path d="M13250 7795 c-553 -18 -1006 -33 -1007 -34 -2 0 -3 -320 -3 -711 l0
-710 1050 0 1050 0 0 745 0 745 -42 -1 c-24 -1 -495 -16 -1048 -34z"/>
<path d="M9155 7673 c-445 -14 -816 -26 -822 -28 -10 -4 -13 -143 -13 -655 l0
-650 910 0 910 0 0 680 0 680 -87 -1 c-49 -1 -452 -13 -898 -26z"/>
<path d="M5615 7565 c-385 -13 -719 -24 -742 -24 l-43 -1 0 -600 0 -600 795 0
795 0 -2 623 -3 622 -50 1 c-27 1 -365 -9 -750 -21z"/>
</g>
</svg>
