<svg alt="logo" fill="none" xmlns="http://www.w3.org/2000/svg" viewBox="0 0 79 30"><path fill-rule="evenodd" clip-rule="evenodd" d="M68.764.121c2.973-.43 5.691.294 7.544 2.058 1.694 1.614 2.549 3.9 2.345 6.271-.387 4.484-2.547 8.076-8.56 13.994l-9.84.326s6.855-6.273 9.433-9.337c1.67-1.986 2.378-4.13 1.692-5.559-.435-.905-1.411-1.356-2.614-1.288V.12zM48.599 3.676v5.828l8.547-.947V2.466l-8.547 1.21zM41.639 30V4.66l5.864-.83V30h-5.865zM18.47 7.949v4.9l6.46-.716V7.034l-6.46.915zm-5.308 22.05V8.702l4.474-.634V30h-4.474zM0 10.565v4.331l11.597-1.285V8.923L0 10.564zm3.7 4.595V30h4.247V14.722L3.7 15.16zm14.77 6.326v-4.99l4.242-.367v5.123l-4.241.234zm0 3.595V30h6.461v-5.116l-6.46.196zM48.6 19.824v-5.936l5.602-.484v6.112l-5.602.308zm0 4.339V30h8.547v-6.097l-8.547.26zM26.64 30V6.792l5.097-.721V30H26.64zm6.048-5.352V30h7.398v-5.577l-7.398.225zM79 30v-6.765l-19.96.5V30H79zM59.3 12.82C58.97 5.809 61.817 1.51 67.616.267l.003 6.584c-1.217.517-2.42 1.456-2.138 5.418l-6.183.553z" fill="#fff"/><mask id="mask0_3271_27" style="mask-type:luminance" maskUnits="userSpaceOnUse" x="0" y="0" width="79" height="30"><path fill-rule="evenodd" clip-rule="evenodd" d="M68.764.121c2.973-.43 5.691.294 7.544 2.058 1.694 1.614 2.549 3.9 2.345 6.271-.387 4.484-2.547 8.076-8.56 13.994l-9.84.326s6.855-6.273 9.433-9.337c1.67-1.986 2.378-4.13 1.692-5.559-.435-.905-1.411-1.356-2.614-1.288V.12zM48.599 3.676v5.828l8.547-.947V2.466l-8.547 1.21zM41.639 30V4.66l5.864-.83V30h-5.865zM18.47 7.949v4.9l6.46-.716V7.034l-6.46.915zm-5.308 22.05V8.702l4.474-.634V30h-4.474zM0 10.565v4.331l11.597-1.285V8.923L0 10.564zm3.7 4.595V30h4.247V14.722L3.7 15.16zm14.77 6.326v-4.99l4.242-.367v5.123l-4.241.234zm0 3.595V30h6.461v-5.116l-6.46.196zM48.6 19.824v-5.936l5.602-.484v6.112l-5.602.308zm0 4.339V30h8.547v-6.097l-8.547.26zM26.64 30V6.792l5.097-.721V30H26.64zm6.048-5.352V30h7.398v-5.577l-7.398.225zM79 30v-6.765l-19.96.5V30H79zM59.3 12.82C58.97 5.809 61.817 1.51 67.616.267l.003 6.584c-1.217.517-2.42 1.456-2.138 5.418l-6.183.553z" fill="#fff"/></mask></svg>