<svg width="24" height="24" viewBox="0 0 24 24" fill="none" xmlns="http://www.w3.org/2000/svg">
<path fill-rule="evenodd" clip-rule="evenodd" d="M12 2.25C8.26303 2.29102 5.25 5.32909 5.25 9.07042C5.25 9.08976 5.25 9.10968 5.25 9.12902C5.25 12.7643 11.2931 20.455 11.5504 20.7802C11.6559 20.9144 11.8177 21 12 21C12.1823 21 12.3441 20.9144 12.4484 20.7814C12.7069 20.455 18.75 12.7643 18.75 9.12609C18.75 9.10968 18.75 9.09035 18.75 9.07042C18.75 5.32851 15.7364 2.29102 12.0035 2.25H12ZM12 19.4616C10.1002 16.9621 6.4048 11.5898 6.4048 9.12609C6.40421 9.09679 6.40363 9.06163 6.40363 9.02705C6.40363 5.93682 8.90901 3.43206 12 3.43206C15.091 3.43206 17.5964 5.93682 17.5964 9.02705C17.5964 9.06163 17.5958 9.09679 17.5952 9.13137C17.5952 11.5887 13.8993 16.9598 11.9994 19.4605L12 19.4616ZM12 6.15835C11.9824 6.15776 11.9619 6.15776 11.9414 6.15776C10.2256 6.15776 8.83456 7.54845 8.83456 9.26381C8.83456 10.9792 10.2256 12.3699 11.9414 12.3699C13.6572 12.3699 15.0476 10.9798 15.0482 9.2644C15.0482 9.2562 15.0482 9.24623 15.0482 9.23627C15.0482 7.5467 13.6876 6.17417 12.0018 6.15542L12 6.15835ZM12 11.1931C11.9894 11.1931 11.9766 11.1937 11.9637 11.1937C10.8974 11.1937 10.0333 10.3298 10.0333 9.26381C10.0333 8.19779 10.8974 7.33396 11.9637 7.33396C13.0299 7.33396 13.894 8.19779 13.894 9.26381C13.894 9.2644 13.894 9.2644 13.894 9.26499C13.894 9.2685 13.894 9.27319 13.894 9.27729C13.894 10.3269 13.0481 11.1796 12.0012 11.1907L12 11.1931Z" fill="white"/>
</svg>
